<svg id="svg" version="1.1" xmlns="http://www.w3.org/2000/svg" xmlns:xlink="http://www.w3.org/1999/xlink" width="400" height="400" viewBox="0, 0, 400,400"><g id="svgg"><path id="path0" d="M97.824 76.881 C 93.303 77.616,89.659 80.436,88.665 83.968 C 88.414 84.859,88.278 105.147,88.283 140.909 L 88.291 196.467 87.407 196.655 C 74.454 199.411,63.623 204.275,59.199 209.323 C 58.544 210.070,57.832 210.871,57.617 211.103 C 56.168 212.664,54.470 216.981,53.898 220.558 C 52.844 227.157,53.504 285.288,54.658 287.444 C 54.846 287.797,55.016 288.219,55.034 288.382 C 55.161 289.503,57.481 293.109,59.323 295.045 C 78.563 315.277,143.602 315.687,163.661 295.703 L 166.602 292.773 216.016 292.773 C 262.748 292.773,265.514 292.735,266.992 292.071 C 268.949 291.191,271.291 288.956,272.396 286.914 L 273.242 285.352 273.349 204.688 C 273.444 133.382,273.387 123.842,272.864 122.456 C 271.844 119.755,229.671 77.997,227.344 77.383 C 225.757 76.964,100.299 76.478,97.824 76.881 M227.265 81.029 C 228.901 81.899,269.443 122.710,269.904 123.951 C 270.470 125.476,270.471 282.030,269.905 284.070 C 269.365 286.013,267.763 287.844,265.836 288.719 C 264.332 289.402,261.925 289.436,214.355 289.445 C 184.270 289.450,164.453 289.596,164.453 289.812 C 164.453 290.010,163.547 291.163,162.439 292.375 C 142.700 313.973,69.959 311.153,58.690 288.353 L 57.227 285.392 57.227 252.364 C 57.227 219.391,57.228 219.333,58.072 217.273 C 61.262 209.496,71.906 203.213,86.814 200.308 L 91.401 199.414 91.501 150.000 C 91.611 96.005,91.645 86.570,91.736 85.267 C 91.815 84.137,94.002 81.666,95.501 81.013 C 97.341 80.211,225.756 80.227,227.265 81.029 M101.953 144.362 L 101.953 198.100 102.770 197.840 C 104.567 197.270,121.228 197.536,126.367 198.217 C 147.933 201.076,160.947 207.020,165.764 216.211 L 166.992 218.555 167.099 248.926 L 167.206 279.297 213.681 279.297 L 260.156 279.297 260.156 205.226 L 260.156 131.156 243.017 131.444 C 217.445 131.876,219.531 133.921,219.531 108.411 L 219.531 90.625 160.742 90.625 L 101.953 90.625 101.953 144.362 M216.016 109.695 C 216.016 128.081,216.077 128.534,219.003 131.662 C 221.905 134.764,221.914 134.766,240.499 134.766 L 256.641 134.766 256.641 205.273 L 256.641 275.781 246.973 275.874 C 241.655 275.925,232.295 275.953,226.172 275.936 C 220.049 275.919,205.063 275.877,192.871 275.843 L 170.703 275.781 170.703 248.457 C 170.703 229.866,170.564 220.471,170.268 219.062 C 167.194 204.450,146.226 195.053,114.941 194.265 L 105.469 194.027 105.469 144.116 C 105.469 104.553,105.570 94.165,105.957 94.009 C 106.226 93.900,131.099 93.798,161.230 93.781 L 216.016 93.750 216.016 109.695 M229.688 109.180 L 229.688 121.094 241.697 121.094 L 253.706 121.094 241.797 109.180 C 235.247 102.627,229.843 97.266,229.788 97.266 C 229.733 97.266,229.688 102.627,229.688 109.180 M245.313 117.699 C 245.313 118.038,233.372 117.920,233.125 117.578 C 233.047 117.471,233.049 114.677,233.130 111.370 L 233.277 105.357 239.295 111.365 C 242.605 114.670,245.313 117.520,245.313 117.699 M131.215 109.982 C 128.771 110.735,126.100 113.179,124.957 115.708 L 124.023 117.773 123.911 145.952 C 123.788 177.016,123.817 177.486,126.177 182.291 C 127.925 185.848,131.273 188.415,132.529 187.159 C 132.771 186.917,133.703 186.719,134.601 186.719 C 135.500 186.719,136.430 186.480,136.674 186.187 C 137.040 185.746,141.139 185.687,160.843 185.840 L 184.570 186.025 185.761 187.153 C 187.299 188.611,187.852 188.575,189.163 186.931 C 189.756 186.188,191.027 185.233,191.989 184.807 C 194.661 183.625,196.247 182.236,197.496 179.982 L 198.633 177.930 198.633 147.461 L 198.633 116.992 197.787 115.412 C 196.504 113.015,193.762 110.697,191.372 109.987 C 188.443 109.117,134.037 109.112,131.215 109.982 M191.373 113.655 C 195.804 115.916,195.699 115.082,195.697 147.852 L 195.695 175.977 194.768 177.969 C 193.795 180.058,192.492 181.219,190.274 181.972 C 187.724 182.836,133.758 182.570,131.836 181.684 C 127.732 179.790,127.759 179.933,127.510 158.261 C 127.080 120.802,127.507 115.625,131.184 113.682 C 133.431 112.495,189.050 112.470,191.373 113.655 M137.500 147.749 L 137.500 172.656 161.565 172.656 L 185.631 172.656 185.468 147.754 L 185.306 122.852 161.403 122.847 L 137.500 122.842 137.500 147.749 M164.361 127.056 C 164.296 127.543,163.746 128.592,163.138 129.389 C 162.531 130.186,161.817 131.572,161.551 132.470 C 160.762 135.145,156.566 137.264,153.226 136.675 C 149.310 135.986,145.139 137.292,142.608 140.002 C 141.081 141.636,141.016 141.372,141.016 133.594 L 141.016 126.172 152.748 126.172 L 164.480 126.172 164.361 127.056 M182.031 128.516 C 182.031 130.302,181.615 130.513,180.863 129.108 C 180.577 128.574,180.020 128.035,179.625 127.910 C 178.363 127.509,178.853 126.953,180.469 126.953 L 182.031 126.953 182.031 128.516 M176.827 129.912 C 184.357 135.903,176.803 147.347,168.301 142.826 L 166.564 141.903 162.677 144.148 C 157.035 147.407,157.054 147.891,162.949 151.152 L 167.346 153.585 168.647 152.964 C 172.592 151.083,177.783 153.076,179.474 157.122 C 182.718 164.887,172.577 171.178,166.294 165.298 C 165.196 164.270,163.798 160.509,164.246 159.785 C 164.505 159.365,163.067 158.388,158.537 155.907 L 155.550 154.271 153.135 154.943 C 147.725 156.446,142.857 152.900,142.857 147.456 C 142.857 141.949,148.856 138.213,154.149 140.424 C 156.241 141.298,163.893 137.074,164.300 134.820 C 165.317 129.202,172.431 126.414,176.827 129.912 M170.536 134.598 C 169.234 135.900,170.369 138.281,172.292 138.281 C 173.220 138.281,174.219 137.007,174.219 135.823 C 174.219 134.143,171.797 133.337,170.536 134.598 M181.997 147.656 C 182.054 154.226,182.131 154.067,179.895 152.006 C 176.981 149.320,173.211 148.353,169.232 149.272 C 167.254 149.728,163.285 148.208,163.892 147.226 C 164.649 146.000,166.285 145.732,168.311 146.502 C 172.580 148.124,178.153 146.546,180.801 142.964 C 181.276 142.322,181.728 141.797,181.805 141.797 C 181.883 141.797,181.969 144.434,181.997 147.656 M148.958 146.334 C 147.683 148.280,150.181 150.574,152.012 149.138 C 153.107 148.279,153.255 147.005,152.364 146.114 C 151.240 144.990,149.776 145.085,148.958 146.334 M145.783 157.463 C 147.779 158.483,152.081 158.898,153.938 158.251 C 155.944 157.551,160.963 160.481,161.405 162.610 C 161.820 164.610,162.738 166.349,164.183 167.871 L 165.388 169.141 153.202 169.141 L 141.016 169.141 141.016 161.478 L 141.016 153.815 142.561 155.211 C 143.410 155.979,144.860 156.992,145.783 157.463 M214.160 158.004 C 213.462 158.308,212.891 158.478,212.891 158.382 C 212.891 157.871,210.736 160.181,209.961 161.523 C 207.016 166.626,209.721 172.988,215.363 174.231 C 219.601 175.164,236.230 174.578,238.485 173.416 C 244.674 170.228,244.458 161.042,238.126 158.167 C 236.003 157.203,216.312 157.069,214.160 158.004 M170.536 158.426 C 169.713 159.250,169.760 160.670,170.636 161.463 C 171.573 162.311,172.768 162.283,173.572 161.395 C 174.872 159.959,173.972 157.813,172.070 157.813 C 171.564 157.813,170.873 158.089,170.536 158.426 M237.650 161.753 C 240.491 163.988,240.512 167.294,237.702 169.922 L 236.657 170.898 226.563 171.014 C 215.266 171.144,214.305 170.980,212.901 168.676 C 211.560 166.477,211.819 164.261,213.626 162.454 L 215.142 160.938 225.878 160.938 C 236.173 160.938,236.656 160.971,237.650 161.753 M181.960 167.480 C 181.854 168.394,181.632 168.574,180.469 168.682 L 179.102 168.810 180.249 167.608 C 181.666 166.123,182.120 166.089,181.960 167.480 M179.347 192.821 C 173.133 195.918,173.454 204.937,179.883 207.865 C 182.093 208.872,234.721 208.988,237.543 207.993 C 243.581 205.862,244.873 197.950,239.879 193.676 C 237.603 191.727,238.765 191.797,208.622 191.797 L 181.403 191.797 179.347 192.821 M235.956 195.319 C 240.590 196.561,241.071 202.594,236.711 204.785 C 234.621 205.834,183.348 205.834,181.258 204.785 C 176.881 202.586,177.423 196.347,182.078 195.340 C 184.090 194.905,234.338 194.885,235.956 195.319 M103.125 208.058 C 78.823 210.287,62.394 218.377,68.821 224.951 C 81.160 237.572,126.820 240.145,149.079 229.474 C 158.899 224.766,159.316 220.091,150.359 215.129 C 140.929 209.906,118.916 206.610,103.125 208.058 M129.688 212.278 C 140.310 213.993,149.832 217.589,152.900 221.045 C 154.841 223.231,146.272 227.975,136.233 230.272 C 113.337 235.512,80.151 231.848,71.806 223.158 L 70.508 221.807 72.113 220.376 C 80.153 213.207,109.698 209.052,129.688 212.278 M181.641 221.459 C 173.743 223.053,172.440 234.021,179.759 237.305 L 181.990 238.306 209.452 238.196 L 236.914 238.086 238.778 236.990 C 245.005 233.330,244.014 223.395,237.235 221.513 C 235.547 221.044,183.945 220.995,181.641 221.459 M237.072 225.103 C 240.440 226.834,240.594 232.042,237.336 234.029 C 235.392 235.215,182.494 235.164,180.543 233.974 C 177.387 232.050,177.410 227.311,180.585 225.375 C 182.147 224.423,235.251 224.168,237.072 225.103 M67.188 244.283 L 67.188 252.191 68.304 253.951 C 76.014 266.109,117.316 270.714,142.578 262.233 C 149.104 260.042,155.063 256.410,156.364 253.831 C 156.913 252.743,157.643 236.328,157.142 236.328 C 157.096 236.328,156.226 236.856,155.209 237.501 C 136.955 249.078,91.700 249.390,70.410 238.086 L 67.188 236.375 67.188 244.283 M77.545 244.691 C 98.582 251.757,130.549 251.275,149.847 243.602 C 151.803 242.824,153.517 242.188,153.655 242.188 C 153.793 242.188,153.906 244.368,153.906 247.034 L 153.906 251.881 152.012 253.584 C 137.739 266.416,85.659 266.296,72.363 253.401 L 70.703 251.790 70.703 247.249 C 70.703 241.968,70.671 242.034,72.796 242.945 C 73.693 243.329,75.830 244.115,77.545 244.691 M179.491 251.308 C 172.767 254.440,173.826 265.177,181.055 267.148 C 183.211 267.736,234.342 267.740,236.523 267.153 C 244.417 265.027,245.282 254.120,237.806 250.997 C 236.539 250.468,232.842 250.391,208.899 250.394 L 181.445 250.398 179.491 251.308 M238.102 255.211 C 240.409 257.518,240.393 260.264,238.060 262.525 L 236.676 263.867 209.451 263.971 C 183.638 264.069,182.157 264.037,180.890 263.354 C 177.786 261.684,177.255 257.557,179.839 255.189 L 181.239 253.906 209.018 253.906 L 236.797 253.906 238.102 255.211 M67.188 274.400 C 67.188 285.091,67.770 286.215,75.264 289.973 C 97.166 300.958,142.001 298.675,155.109 285.907 L 157.031 284.035 157.114 279.420 C 157.159 276.882,157.213 272.932,157.234 270.644 L 157.272 266.483 154.124 268.182 C 132.080 280.082,85.817 279.505,68.262 267.111 L 67.188 266.353 67.188 274.400 M75.512 274.196 C 95.733 282.504,131.379 281.988,151.693 273.092 C 152.731 272.638,153.654 272.266,153.743 272.266 C 153.833 272.266,153.906 274.542,153.906 277.324 L 153.906 282.382 152.637 283.593 C 138.954 296.638,87.322 296.977,72.301 284.120 L 70.703 282.752 70.703 277.467 C 70.703 273.382,70.814 272.232,71.191 272.401 C 71.460 272.522,73.404 273.330,75.512 274.196 " stroke="none" fill="#080808" fill-rule="evenodd"></path><path id="path1" d="M95.970 81.035 C 95.150 81.327,94.115 81.891,93.670 82.287 C 91.721 84.023,91.797 81.585,91.797 142.516 L 91.797 199.510 88.294 200.151 C 72.590 203.024,61.175 209.603,58.200 217.495 C 57.107 220.397,56.973 283.413,58.054 286.607 C 66.270 310.888,145.029 314.499,163.141 291.426 L 164.843 289.258 214.746 289.258 C 271.401 289.258,266.542 289.552,268.803 285.987 L 269.922 284.222 269.922 204.084 L 269.922 123.945 268.791 122.422 C 266.813 119.757,227.977 81.309,226.830 80.880 C 225.010 80.199,97.892 80.349,95.970 81.035 M219.614 108.691 C 219.739 128.726,219.676 128.232,222.357 130.145 L 223.633 131.055 241.895 131.163 L 260.156 131.272 260.156 205.271 L 260.156 279.270 250.684 279.384 C 227.407 279.665,194.706 279.694,181.543 279.445 L 167.188 279.174 167.188 250.216 C 167.188 218.434,167.192 218.497,164.843 214.848 C 157.892 204.049,135.707 197.176,109.573 197.726 L 101.563 197.895 101.563 144.260 L 101.563 90.625 160.532 90.625 L 219.502 90.625 219.614 108.691 M241.990 109.292 L 254.097 121.484 241.892 121.484 L 229.688 121.484 229.688 109.115 C 229.688 102.311,229.731 96.825,229.785 96.923 C 229.839 97.020,235.331 102.587,241.990 109.292 M131.820 113.625 C 127.471 115.600,127.673 113.849,127.812 148.438 C 127.945 181.335,127.737 179.249,131.076 181.150 L 132.617 182.027 161.780 181.931 L 190.943 181.836 192.444 180.636 C 195.512 178.185,195.331 180.356,195.218 147.237 L 195.117 117.716 194.076 116.143 C 191.825 112.742,193.310 112.889,161.430 112.899 C 135.079 112.907,133.304 112.951,131.820 113.625 M185.547 147.656 L 185.547 172.656 161.523 172.656 L 137.500 172.656 137.500 147.656 L 137.500 122.656 161.523 122.656 L 185.547 122.656 185.547 147.656 M169.450 128.878 C 166.846 129.721,164.453 132.746,164.453 135.196 C 164.453 136.018,163.803 136.527,160.069 138.634 L 155.684 141.107 153.787 140.425 C 144.857 137.214,138.985 148.366,146.609 154.058 C 148.027 155.117,152.022 155.386,154.009 154.556 L 155.450 153.954 159.904 156.487 L 164.357 159.021 164.542 160.946 C 165.427 170.155,179.691 169.321,179.825 160.052 C 179.907 154.409,172.861 150.207,168.313 153.187 C 166.762 154.203,158.846 149.617,158.681 147.607 C 158.575 146.315,158.652 146.244,162.575 144.019 L 166.577 141.749 167.981 142.538 C 172.530 145.095,178.098 142.940,179.512 138.075 C 181.196 132.283,175.374 126.962,169.450 128.878 M173.926 134.690 C 175.310 135.879,174.204 138.281,172.271 138.281 C 170.752 138.281,169.852 137.299,169.998 135.800 C 170.196 133.781,172.206 133.213,173.926 134.690 M152.411 145.959 C 153.864 147.274,152.800 149.609,150.749 149.609 C 149.423 149.609,148.438 148.694,148.438 147.461 C 148.438 145.528,150.904 144.596,152.411 145.959 M174.089 158.834 C 175.067 160.327,174.168 161.867,172.220 162.031 C 170.634 162.166,169.824 161.466,169.824 159.961 C 169.824 157.682,172.816 156.891,174.089 158.834 M214.844 161.622 C 211.338 163.373,211.399 168.835,214.941 170.341 C 216.068 170.820,233.061 171.221,235.456 170.825 C 239.790 170.108,241.000 163.535,237.163 161.551 C 235.305 160.590,216.791 160.649,214.844 161.622 M180.429 196.206 C 177.626 198.092,177.727 202.570,180.611 204.328 C 182.114 205.245,234.934 205.519,236.905 204.620 C 239.064 203.637,240.252 199.879,239.091 197.709 C 237.761 195.225,238.904 195.316,208.944 195.314 L 181.756 195.313 180.429 196.206 M126.284 208.396 C 141.577 210.185,154.306 215.231,156.803 220.494 C 159.131 225.399,149.051 231.417,133.594 234.350 C 108.991 239.019,78.588 234.853,69.238 225.533 C 59.097 215.423,94.763 204.709,126.284 208.396 M206.965 224.995 L 180.922 225.195 179.925 226.132 C 177.700 228.223,177.776 231.193,180.113 233.432 L 181.301 234.570 207.936 234.688 C 226.015 234.767,235.032 234.671,236.006 234.388 C 241.558 232.774,240.078 224.296,234.316 224.702 C 233.596 224.752,221.288 224.884,206.965 224.995 M72.280 238.815 C 94.864 249.416,137.601 248.525,155.654 237.076 L 157.422 235.955 157.422 243.966 C 157.422 254.222,156.887 255.402,150.648 258.911 C 128.283 271.492,75.275 268.022,67.757 253.484 C 66.802 251.636,66.923 235.577,67.886 236.448 C 68.270 236.796,70.247 237.861,72.280 238.815 M181.036 254.455 C 177.326 256.071,177.471 261.427,181.278 263.384 C 183.330 264.439,235.589 264.247,237.219 263.178 C 240.457 261.056,240.315 256.132,236.970 254.545 C 235.137 253.675,183.019 253.592,181.036 254.455 M68.171 266.807 C 68.307 267.028,69.767 267.887,71.416 268.715 C 92.777 279.452,132.624 279.266,153.474 268.331 C 155.492 267.272,157.206 266.406,157.283 266.406 C 157.359 266.406,157.422 270.309,157.422 275.078 L 157.422 283.751 155.176 285.927 C 141.777 298.909,96.742 301.191,74.963 289.991 C 67.508 286.157,67.188 285.525,67.188 274.622 C 67.188 267.072,67.381 265.531,68.171 266.807 " stroke="none" fill="#fbfbfb" fill-rule="evenodd"></path><path id="path2" d="M238.217 110.674 C 238.686 111.173,238.980 111.671,238.871 111.780 C 238.761 111.890,238.940 111.979,239.269 111.979 C 239.695 111.979,239.562 111.663,238.805 110.872 C 238.222 110.264,237.659 109.766,237.554 109.766 C 237.449 109.766,237.748 110.174,238.217 110.674 M215.724 122.070 C 215.728 122.930,215.808 123.235,215.901 122.749 C 215.995 122.263,215.991 121.560,215.893 121.187 C 215.796 120.813,215.719 121.211,215.724 122.070 M234.887 121.386 C 237.854 121.452,242.600 121.452,245.434 121.386 C 248.267 121.319,245.840 121.265,240.039 121.265 C 234.238 121.265,231.920 121.319,234.887 121.386 M270.113 204.297 C 270.113 246.729,270.159 264.087,270.215 242.871 C 270.271 221.655,270.271 186.938,270.215 165.723 C 270.159 144.507,270.113 161.865,270.113 204.297 M87.989 156.836 C 87.993 157.695,88.073 158.001,88.167 157.515 C 88.260 157.029,88.257 156.326,88.159 155.952 C 88.061 155.579,87.985 155.977,87.989 156.836 M87.989 172.852 C 87.993 173.711,88.073 174.017,88.167 173.531 C 88.260 173.045,88.257 172.342,88.159 171.968 C 88.061 171.595,87.985 171.992,87.989 172.852 M174.142 182.323 C 176.355 182.393,179.871 182.392,181.954 182.322 C 184.038 182.252,182.227 182.195,177.930 182.195 C 173.633 182.196,171.928 182.253,174.142 182.323 M87.981 186.719 C 87.981 187.471,88.062 187.778,88.160 187.402 C 88.258 187.026,88.258 186.411,88.160 186.035 C 88.062 185.659,87.981 185.967,87.981 186.719 M87.989 190.430 C 87.993 191.289,88.073 191.595,88.167 191.109 C 88.260 190.623,88.257 189.920,88.159 189.546 C 88.061 189.173,87.985 189.570,87.989 190.430 M57.215 244.922 C 57.215 257.920,57.264 263.237,57.324 256.738 C 57.384 250.239,57.384 239.604,57.324 233.105 C 57.264 226.606,57.215 231.924,57.215 244.922 M222.754 224.900 C 224.419 224.973,227.144 224.973,228.809 224.900 C 230.474 224.827,229.111 224.767,225.781 224.767 C 222.451 224.767,221.089 224.827,222.754 224.900 M256.341 229.297 C 256.341 230.049,256.421 230.356,256.519 229.980 C 256.618 229.604,256.618 228.989,256.519 228.613 C 256.421 228.237,256.341 228.545,256.341 229.297 M115.923 232.698 C 116.408 232.792,117.112 232.788,117.485 232.690 C 117.858 232.592,117.461 232.516,116.602 232.520 C 115.742 232.525,115.437 232.605,115.923 232.698 M203.223 250.269 C 203.599 250.368,204.214 250.368,204.590 250.269 C 204.966 250.171,204.658 250.091,203.906 250.091 C 203.154 250.091,202.847 250.171,203.223 250.269 M222.754 250.269 C 223.130 250.368,223.745 250.368,224.121 250.269 C 224.497 250.171,224.189 250.091,223.438 250.091 C 222.686 250.091,222.378 250.171,222.754 250.269 M256.349 256.445 C 256.353 257.305,256.433 257.610,256.526 257.124 C 256.620 256.638,256.616 255.935,256.518 255.562 C 256.421 255.188,256.344 255.586,256.349 256.445 M256.341 269.922 C 256.341 270.674,256.421 270.981,256.519 270.605 C 256.618 270.229,256.618 269.614,256.519 269.238 C 256.421 268.862,256.341 269.170,256.341 269.922 M153.633 279.688 C 153.633 280.869,153.706 281.353,153.795 280.762 C 153.885 280.171,153.885 279.204,153.795 278.613 C 153.706 278.022,153.633 278.506,153.633 279.688 M109.284 280.361 C 109.986 280.448,111.041 280.446,111.628 280.357 C 112.215 280.268,111.641 280.197,110.352 280.199 C 109.063 280.201,108.582 280.274,109.284 280.361 M157.122 282.031 C 157.122 282.783,157.202 283.091,157.301 282.715 C 157.399 282.339,157.399 281.724,157.301 281.348 C 157.202 280.972,157.122 281.279,157.122 282.031 M178.418 289.350 C 179.546 289.429,181.392 289.429,182.520 289.350 C 183.647 289.272,182.725 289.207,180.469 289.207 C 178.213 289.207,177.290 289.272,178.418 289.350 " stroke="none" fill="#939292" fill-rule="evenodd"></path><path id="path3" d="M250.586 99.219 C 261.971 110.605,271.374 119.922,271.482 119.922 C 271.589 119.922,262.362 110.605,250.977 99.219 C 239.591 87.832,230.188 78.516,230.081 78.516 C 229.973 78.516,239.201 87.832,250.586 99.219 M87.989 87.305 C 87.993 88.164,88.073 88.470,88.167 87.984 C 88.260 87.498,88.257 86.795,88.159 86.421 C 88.061 86.048,87.985 86.445,87.989 87.305 M91.518 87.695 C 91.521 88.770,91.597 89.163,91.687 88.569 C 91.776 87.975,91.774 87.096,91.681 86.616 C 91.589 86.135,91.515 86.621,91.518 87.695 M101.752 144.336 C 101.752 173.984,101.799 186.171,101.855 171.417 C 101.912 156.663,101.912 132.406,101.855 117.511 C 101.799 102.616,101.752 114.688,101.752 144.336 M133.722 94.043 C 148.939 94.100,173.724 94.100,188.800 94.043 C 203.876 93.986,191.426 93.940,161.133 93.940 C 130.840 93.940,118.505 93.986,133.722 94.043 M91.596 149.805 C 91.596 177.090,91.642 188.194,91.699 174.481 C 91.756 160.768,91.756 138.444,91.699 124.872 C 91.642 111.300,91.596 122.520,91.596 149.805 M147.754 109.277 C 155.220 109.337,167.437 109.337,174.902 109.277 C 182.368 109.218,176.260 109.169,161.328 109.169 C 146.396 109.169,140.288 109.218,147.754 109.277 M194.531 111.450 C 194.531 111.518,195.103 112.089,195.801 112.720 L 197.070 113.867 195.923 112.598 C 194.854 111.414,194.531 111.149,194.531 111.450 M236.834 117.869 C 238.509 117.942,241.146 117.942,242.694 117.868 C 244.241 117.794,242.871 117.734,239.648 117.734 C 236.426 117.735,235.159 117.795,236.834 117.869 M195.498 147.070 C 195.498 162.539,195.546 168.810,195.605 161.006 C 195.665 153.203,195.664 140.546,195.605 132.881 C 195.546 125.217,195.498 131.602,195.498 147.070 M199.013 147.852 C 199.013 163.105,199.062 169.403,199.121 161.845 C 199.180 154.288,199.180 141.807,199.121 134.111 C 199.062 126.414,199.013 132.598,199.013 147.852 M146.973 122.936 C 147.563 123.026,148.530 123.026,149.121 122.936 C 149.712 122.847,149.229 122.773,148.047 122.773 C 146.865 122.773,146.382 122.847,146.973 122.936 M156.738 122.941 C 157.544 123.025,158.862 123.025,159.668 122.941 C 160.474 122.857,159.814 122.788,158.203 122.788 C 156.592 122.788,155.933 122.857,156.738 122.941 M273.629 204.102 C 273.629 247.715,273.675 265.499,273.730 243.621 C 273.786 221.744,273.786 186.060,273.730 164.324 C 273.675 142.589,273.629 160.488,273.629 204.102 M185.297 131.641 C 185.297 133.682,185.363 134.517,185.443 133.496 C 185.524 132.476,185.524 130.806,185.443 129.785 C 185.363 128.765,185.297 129.600,185.297 131.641 M217.969 130.982 C 217.969 131.049,218.540 131.620,219.238 132.251 L 220.508 133.398 219.361 132.129 C 218.291 130.946,217.969 130.680,217.969 130.982 M229.395 131.542 C 231.919 131.610,236.050 131.610,238.574 131.542 C 241.099 131.474,239.033 131.418,233.984 131.418 C 228.936 131.418,226.870 131.474,229.395 131.542 M127.522 149.219 C 127.522 157.920,127.573 161.479,127.636 157.129 C 127.699 152.778,127.699 145.659,127.636 141.309 C 127.573 136.958,127.522 140.518,127.522 149.219 M225.688 135.042 C 226.174 135.135,226.877 135.132,227.251 135.034 C 227.624 134.936,227.227 134.860,226.367 134.864 C 225.508 134.868,225.202 134.948,225.688 135.042 M228.809 135.041 C 229.292 135.134,230.083 135.134,230.566 135.041 C 231.050 134.948,230.654 134.872,229.688 134.872 C 228.721 134.872,228.325 134.948,228.809 135.041 M181.783 149.805 C 181.784 151.953,181.850 152.782,181.929 151.647 C 182.008 150.512,182.007 148.754,181.927 147.741 C 181.847 146.728,181.782 147.656,181.783 149.805 M123.544 153.125 C 123.544 154.092,123.620 154.487,123.713 154.004 C 123.806 153.521,123.806 152.729,123.713 152.246 C 123.620 151.763,123.544 152.158,123.544 153.125 M243.059 165.625 C 243.059 166.377,243.140 166.685,243.238 166.309 C 243.336 165.933,243.336 165.317,243.238 164.941 C 243.140 164.565,243.059 164.873,243.059 165.625 M181.594 167.493 C 181.466 168.269,181.523 168.633,181.740 168.417 C 181.936 168.220,182.032 167.643,181.952 167.135 C 181.829 166.353,181.774 166.408,181.594 167.493 M139.941 185.836 C 141.177 185.913,143.198 185.913,144.434 185.836 C 145.669 185.758,144.658 185.695,142.188 185.695 C 139.717 185.695,138.706 185.758,139.941 185.836 M239.453 193.091 C 239.453 193.158,240.024 193.729,240.723 194.361 L 241.992 195.508 240.845 194.238 C 239.775 193.055,239.453 192.789,239.453 193.091 M110.840 194.036 C 111.753 194.118,113.247 194.118,114.160 194.036 C 115.073 193.954,114.326 193.886,112.500 193.886 C 110.674 193.886,109.927 193.954,110.840 194.036 M198.953 195.215 C 204.715 195.276,214.032 195.275,219.656 195.215 C 225.281 195.154,220.566 195.104,209.180 195.104 C 197.793 195.104,193.191 195.154,198.953 195.215 M233.301 195.191 C 233.677 195.289,234.292 195.289,234.668 195.191 C 235.044 195.093,234.736 195.013,233.984 195.013 C 233.232 195.013,232.925 195.093,233.301 195.191 M112.207 197.550 C 113.013 197.634,114.331 197.634,115.137 197.550 C 115.942 197.466,115.283 197.397,113.672 197.397 C 112.061 197.397,111.401 197.466,112.207 197.550 M243.059 200.391 C 243.059 201.143,243.140 201.450,243.238 201.074 C 243.336 200.698,243.336 200.083,243.238 199.707 C 243.140 199.331,243.059 199.639,243.059 200.391 M176.172 205.200 C 176.172 205.268,176.743 205.839,177.441 206.470 L 178.711 207.617 177.564 206.348 C 176.494 205.164,176.172 204.899,176.172 205.200 M196.415 205.371 C 203.359 205.431,214.609 205.431,221.415 205.371 C 228.221 205.311,222.539 205.262,208.789 205.262 C 195.039 205.262,189.471 205.311,196.415 205.371 M222.754 208.863 C 223.130 208.961,223.745 208.961,224.121 208.863 C 224.497 208.765,224.189 208.684,223.438 208.684 C 222.686 208.684,222.378 208.765,222.754 208.863 M193.874 224.902 C 198.777 224.964,206.687 224.964,211.452 224.902 C 216.218 224.840,212.207 224.789,202.539 224.789 C 192.871 224.789,188.972 224.840,193.874 224.902 M174.716 229.688 C 174.716 230.654,174.792 231.050,174.885 230.566 C 174.978 230.083,174.978 229.292,174.885 228.809 C 174.792 228.325,174.716 228.721,174.716 229.688 M243.059 229.688 C 243.059 230.439,243.140 230.747,243.238 230.371 C 243.336 229.995,243.336 229.380,243.238 229.004 C 243.140 228.628,243.059 228.936,243.059 229.688 M157.193 245.117 C 157.193 248.984,157.252 250.514,157.323 248.515 C 157.394 246.517,157.393 243.353,157.322 241.484 C 157.250 239.615,157.192 241.250,157.193 245.117 M53.276 249.609 C 53.276 252.295,53.338 253.394,53.414 252.051 C 53.490 250.708,53.490 248.511,53.414 247.168 C 53.338 245.825,53.276 246.924,53.276 249.609 M256.341 248.047 C 256.341 248.799,256.421 249.106,256.519 248.730 C 256.618 248.354,256.618 247.739,256.519 247.363 C 256.421 246.987,256.341 247.295,256.341 248.047 M108.105 249.900 C 109.878 249.972,112.778 249.972,114.551 249.900 C 116.323 249.828,114.873 249.768,111.328 249.768 C 107.783 249.768,106.333 249.828,108.105 249.900 M184.668 250.276 C 185.151 250.369,185.942 250.369,186.426 250.276 C 186.909 250.183,186.514 250.106,185.547 250.106 C 184.580 250.106,184.185 250.183,184.668 250.276 M232.324 250.276 C 232.808 250.369,233.599 250.369,234.082 250.276 C 234.565 250.183,234.170 250.106,233.203 250.106 C 232.236 250.106,231.841 250.183,232.324 250.276 M239.453 251.685 C 239.453 251.752,240.024 252.323,240.723 252.954 L 241.992 254.102 240.845 252.832 C 239.775 251.649,239.453 251.383,239.453 251.685 M53.224 257.227 C 53.228 258.086,53.308 258.392,53.401 257.906 C 53.495 257.420,53.491 256.717,53.393 256.343 C 53.296 255.970,53.219 256.367,53.224 257.227 M243.067 258.789 C 243.072 259.648,243.152 259.954,243.245 259.468 C 243.338 258.982,243.335 258.279,243.237 257.906 C 243.139 257.532,243.063 257.930,243.067 258.789 M53.216 260.547 C 53.216 261.299,53.296 261.606,53.394 261.230 C 53.493 260.854,53.493 260.239,53.394 259.863 C 53.296 259.487,53.216 259.795,53.216 260.547 M53.224 263.477 C 53.228 264.336,53.308 264.642,53.401 264.156 C 53.495 263.670,53.491 262.967,53.393 262.593 C 53.296 262.220,53.219 262.617,53.224 263.477 M117.485 263.167 C 117.971 263.260,118.674 263.257,119.048 263.159 C 119.421 263.061,119.023 262.985,118.164 262.989 C 117.305 262.993,116.999 263.073,117.485 263.167 M176.172 263.794 C 176.172 263.861,176.743 264.433,177.441 265.064 L 178.711 266.211 177.564 264.941 C 176.494 263.758,176.172 263.492,176.172 263.794 M53.224 266.602 C 53.228 267.461,53.308 267.767,53.401 267.281 C 53.495 266.795,53.491 266.092,53.393 265.718 C 53.296 265.345,53.219 265.742,53.224 266.602 M157.168 277.734 C 157.168 279.561,157.235 280.308,157.317 279.395 C 157.400 278.481,157.400 276.987,157.317 276.074 C 157.235 275.161,157.168 275.908,157.168 277.734 M222.754 276.073 C 225.278 276.141,229.409 276.141,231.934 276.073 C 234.458 276.005,232.393 275.949,227.344 275.949 C 222.295 275.949,220.229 276.005,222.754 276.073 M57.174 279.883 C 57.175 282.031,57.241 282.860,57.320 281.725 C 57.399 280.590,57.398 278.832,57.318 277.819 C 57.238 276.806,57.173 277.734,57.174 279.883 M108.487 276.844 C 109.181 276.931,110.411 276.932,111.222 276.848 C 112.032 276.763,111.465 276.692,109.961 276.691 C 108.457 276.689,107.794 276.758,108.487 276.844 M114.746 276.838 C 115.229 276.931,116.021 276.931,116.504 276.838 C 116.987 276.745,116.592 276.669,115.625 276.669 C 114.658 276.669,114.263 276.745,114.746 276.838 M112.988 280.347 C 113.364 280.446,113.979 280.446,114.355 280.347 C 114.731 280.249,114.424 280.169,113.672 280.169 C 112.920 280.169,112.612 280.249,112.988 280.347 M53.606 282.422 C 53.606 283.174,53.687 283.481,53.785 283.105 C 53.883 282.729,53.883 282.114,53.785 281.738 C 53.687 281.362,53.606 281.670,53.606 282.422 M167.676 289.353 C 169.341 289.426,172.065 289.426,173.730 289.353 C 175.396 289.280,174.033 289.220,170.703 289.220 C 167.373 289.220,166.011 289.280,167.676 289.353 M176.486 292.870 C 178.699 292.939,182.215 292.939,184.298 292.869 C 186.381 292.799,184.570 292.742,180.273 292.742 C 175.977 292.743,174.272 292.800,176.486 292.870 M117.876 293.636 C 118.362 293.729,119.065 293.726,119.438 293.628 C 119.812 293.530,119.414 293.454,118.555 293.458 C 117.695 293.462,117.390 293.542,117.876 293.636 M59.375 295.508 C 60.104 296.260,60.788 296.875,60.895 296.875 C 61.003 296.875,60.494 296.260,59.766 295.508 C 59.037 294.756,58.353 294.141,58.245 294.141 C 58.138 294.141,58.646 294.756,59.375 295.508 M164.233 295.410 L 163.086 296.680 164.355 295.532 C 165.539 294.463,165.805 294.141,165.503 294.141 C 165.436 294.141,164.864 294.712,164.233 295.410 M104.395 310.426 C 104.771 310.524,105.386 310.524,105.762 310.426 C 106.138 310.327,105.830 310.247,105.078 310.247 C 104.326 310.247,104.019 310.327,104.395 310.426 M119.238 310.426 C 119.614 310.524,120.229 310.524,120.605 310.426 C 120.981 310.327,120.674 310.247,119.922 310.247 C 119.170 310.247,118.862 310.327,119.238 310.426 " stroke="none" fill="#747c79" fill-rule="evenodd"></path><path id="path4" d="M220.619 170.992 C 221.754 171.071,223.512 171.070,224.525 170.990 C 225.538 170.910,224.609 170.845,222.461 170.846 C 220.313 170.847,219.483 170.912,220.619 170.992 M143.093 182.324 C 148.211 182.386,156.472 182.386,161.453 182.324 C 166.433 182.262,162.246 182.212,152.148 182.212 C 142.051 182.212,137.976 182.262,143.093 182.324 M186.431 182.312 C 187.025 182.401,187.904 182.399,188.384 182.306 C 188.865 182.214,188.379 182.140,187.305 182.143 C 186.230 182.146,185.837 182.222,186.431 182.312 M196.415 279.590 C 202.929 279.650,213.476 279.650,219.852 279.590 C 226.228 279.529,220.898 279.480,208.008 279.480 C 195.117 279.480,189.900 279.530,196.415 279.590 M235.850 279.583 C 236.769 279.666,238.175 279.665,238.975 279.581 C 239.775 279.497,239.023 279.429,237.305 279.431 C 235.586 279.432,234.931 279.501,235.850 279.583 M185.259 289.343 C 185.853 289.433,186.732 289.430,187.212 289.337 C 187.693 289.245,187.207 289.171,186.133 289.174 C 185.059 289.177,184.666 289.253,185.259 289.343 " stroke="none" fill="#c5c5c5" fill-rule="evenodd"></path></g></svg>