<svg id="svg" version="1.1" xmlns="http://www.w3.org/2000/svg" xmlns:xlink="http://www.w3.org/1999/xlink" width="400" height="400" viewBox="0, 0, 400,400"><g id="svgg"><path id="path0" d="M94.126 84.863 C 92.852 85.505,92.146 86.212,91.504 87.485 L 90.625 89.228 90.625 145.920 L 90.625 202.612 87.319 203.262 C 72.881 206.099,61.526 212.395,58.355 219.321 L 57.405 221.396 57.416 253.374 L 57.428 285.352 58.419 287.380 C 61.227 293.125,69.107 298.519,79.688 301.937 C 100.486 308.657,135.274 308.185,154.090 300.928 C 164.287 296.995,172.614 289.792,172.652 284.868 C 172.655 284.487,182.467 284.363,218.917 284.282 C 270.762 284.167,265.937 284.441,268.140 281.490 L 268.945 280.412 269.048 202.999 C 269.118 149.501,269.023 125.278,268.739 124.588 C 268.061 122.944,230.114 85.285,228.431 84.587 C 227.142 84.052,219.607 83.984,161.423 83.984 L 95.869 83.984 94.126 84.863 M221.184 109.863 C 221.031 133.204,219.033 131.250,243.052 131.250 L 259.766 131.250 259.766 203.125 L 259.766 275.000 216.207 275.000 L 172.648 275.000 172.662 248.201 L 172.676 221.402 171.742 219.392 C 166.067 207.181,144.013 200.383,111.570 200.845 L 100.396 201.004 100.296 147.377 L 100.195 93.750 160.742 93.750 L 221.289 93.750 221.184 109.863 M241.911 110.195 C 248.294 116.447,253.516 121.676,253.516 121.816 C 253.516 121.956,248.330 122.070,241.992 122.070 L 230.469 122.070 230.469 111.067 C 230.469 105.015,230.362 99.786,230.232 99.446 C 229.817 98.365,230.097 98.623,241.911 110.195 M130.106 115.134 C 129.369 115.511,128.227 116.496,127.567 117.321 L 126.367 118.822 126.250 149.548 C 126.119 183.986,126.073 183.050,127.997 185.179 C 130.129 187.539,129.493 187.496,162.109 187.496 C 194.100 187.496,194.014 187.501,195.989 185.453 C 198.099 183.266,198.047 184.128,198.038 151.049 C 198.029 116.264,198.185 118.134,195.093 115.775 L 193.616 114.648 162.531 114.548 C 133.523 114.454,131.356 114.493,130.106 115.134 M188.967 150.879 L 189.068 178.125 162.307 178.125 L 135.547 178.125 135.547 150.779 L 135.547 123.432 162.207 123.532 L 188.867 123.633 188.967 150.879 M172.486 130.518 C 169.333 131.255,166.835 134.322,166.798 137.500 C 166.783 138.848,166.707 138.909,161.299 141.928 L 155.815 144.990 154.372 144.272 C 149.331 141.765,143.392 145.048,143.043 150.535 C 142.657 156.597,148.297 160.363,154.216 157.995 L 155.713 157.396 161.212 160.603 L 166.711 163.810 166.902 165.506 C 167.943 174.739,182.031 173.573,182.031 164.254 C 182.031 158.396,175.513 154.737,170.526 157.796 L 169.336 158.526 163.965 155.405 C 156.708 151.188,156.707 151.246,164.085 147.166 C 169.304 144.279,169.612 144.162,170.621 144.678 C 173.521 146.162,177.151 145.753,179.517 143.676 C 185.658 138.284,180.506 128.643,172.486 130.518 M175.607 137.132 C 176.564 138.190,175.943 139.258,174.371 139.258 C 173.107 139.258,172.593 137.932,173.455 136.893 C 174.102 136.114,174.750 136.186,175.607 137.132 M152.185 150.591 C 152.507 151.874,151.712 152.806,150.424 152.656 C 148.508 152.434,148.821 149.609,150.762 149.609 C 151.693 149.609,151.990 149.814,152.185 150.591 M212.500 164.453 L 212.500 169.141 225.195 169.141 C 240.369 169.141,239.453 169.442,239.453 164.453 C 239.453 159.465,240.369 159.766,225.195 159.766 L 212.500 159.766 212.500 164.453 M175.932 163.764 C 176.551 164.753,174.907 166.394,173.920 165.773 C 173.163 165.296,172.865 164.318,173.207 163.428 C 173.507 162.645,175.375 162.875,175.932 163.764 M185.547 194.808 C 183.276 195.643,182.620 201.015,184.553 202.947 L 185.511 203.906 211.258 203.906 C 241.649 203.906,239.067 204.335,239.057 199.288 C 239.050 195.906,238.903 195.530,237.369 194.946 C 236.233 194.515,186.704 194.383,185.547 194.808 M133.203 210.719 C 158.611 214.346,170.149 223.106,159.543 230.715 C 139.673 244.973,78.649 242.955,67.580 227.674 C 62.345 220.449,78.830 212.169,102.734 210.017 C 107.311 209.605,128.883 210.102,133.203 210.719 M184.375 222.656 C 183.733 223.299,183.594 223.958,183.594 226.367 C 183.594 231.318,180.751 230.859,211.437 230.859 C 242.266 230.859,239.453 231.310,239.453 226.367 C 239.453 221.424,242.266 221.875,211.437 221.875 C 185.677 221.875,185.141 221.890,184.375 222.656 M70.898 241.312 C 93.478 252.649,141.671 251.977,161.478 240.050 L 163.672 238.729 163.672 246.532 C 163.672 255.376,163.650 255.461,160.679 258.232 C 143.886 273.894,77.342 272.094,67.212 255.704 C 66.468 254.499,66.406 253.799,66.406 246.509 L 66.406 238.619 67.480 239.377 C 68.071 239.794,69.609 240.665,70.898 241.312 M184.202 249.696 C 183.509 250.685,183.357 255.078,183.976 256.235 C 184.782 257.741,186.049 257.813,211.752 257.813 C 241.572 257.813,239.437 258.179,239.447 253.055 C 239.456 248.388,242.368 248.828,211.518 248.828 L 184.810 248.828 184.202 249.696 M163.481 283.077 C 162.504 288.478,149.829 294.390,134.375 296.653 C 106.619 300.718,72.302 294.252,66.976 283.953 C 66.401 282.841,66.087 267.578,66.639 267.578 C 66.767 267.578,67.338 267.907,67.908 268.309 C 72.050 271.230,82.930 274.820,92.188 276.319 C 117.947 280.493,150.076 276.786,162.109 268.251 L 163.477 267.281 163.591 274.559 C 163.654 278.561,163.605 282.394,163.481 283.077 " stroke="none" fill="#fafafa" fill-rule="evenodd"></path><path id="path1" d="M0.000 200.000 L 0.000 400.000 200.000 400.000 L 400.000 400.000 400.000 200.000 L 400.000 0.000 200.000 0.000 L 0.000 0.000 0.000 200.000 M228.393 84.400 C 229.634 84.868,267.398 122.211,268.457 124.017 C 269.102 125.117,269.141 129.568,269.141 202.474 C 269.141 288.082,269.347 281.386,266.651 283.308 L 265.430 284.180 219.043 284.282 C 175.289 284.379,172.656 284.423,172.652 285.063 C 172.650 285.437,172.209 286.687,171.671 287.842 C 159.677 313.608,70.910 313.149,58.163 287.255 L 57.227 285.352 57.227 253.320 L 57.227 221.289 58.316 219.070 C 61.475 212.638,70.595 207.266,83.822 204.047 C 87.027 203.267,89.868 202.570,90.137 202.499 C 90.525 202.395,90.625 190.641,90.625 145.383 L 90.625 88.397 91.513 87.079 C 92.002 86.354,92.995 85.361,93.719 84.873 L 95.037 83.984 161.165 83.984 C 206.905 83.984,227.632 84.112,228.393 84.400 M100.296 147.480 L 100.396 201.210 102.835 200.898 C 107.285 200.328,125.500 200.596,131.641 201.320 C 155.199 204.101,170.510 211.646,172.627 221.519 C 172.902 222.802,173.047 232.351,173.047 249.238 L 173.047 275.000 216.406 275.000 L 259.766 275.000 259.766 203.125 L 259.766 131.250 242.636 131.250 C 218.995 131.250,221.289 133.478,221.289 110.518 L 221.289 93.750 160.742 93.750 L 100.195 93.750 100.296 147.480 M230.469 110.547 L 230.469 121.875 241.892 121.875 L 253.315 121.875 241.992 110.547 C 235.764 104.316,230.624 99.219,230.569 99.219 C 230.514 99.219,230.469 104.316,230.469 110.547 M194.591 115.327 C 198.267 117.487,198.048 115.207,198.040 151.198 L 198.034 182.617 197.154 184.172 C 196.660 185.043,195.590 186.113,194.719 186.607 L 193.164 187.487 162.109 187.487 L 131.055 187.487 129.500 186.607 C 128.629 186.113,127.559 185.043,127.065 184.172 L 126.185 182.617 126.178 151.059 C 126.171 115.917,126.041 117.665,128.814 115.691 C 130.968 114.157,131.822 114.119,162.695 114.189 L 192.773 114.258 194.591 115.327 M135.547 150.977 L 135.547 178.125 162.109 178.125 L 188.672 178.125 188.672 150.977 L 188.672 123.828 162.109 123.828 L 135.547 123.828 135.547 150.977 M176.992 130.536 C 183.175 132.668,184.233 140.857,178.791 144.459 C 176.855 145.740,172.902 145.936,170.804 144.856 L 169.538 144.204 165.726 146.367 C 163.629 147.557,161.167 148.956,160.254 149.477 C 157.406 151.101,157.782 151.695,163.889 155.222 L 169.185 158.280 171.189 157.418 C 179.324 153.919,186.253 163.999,179.834 169.995 C 175.424 174.114,168.131 171.726,166.742 165.708 L 166.276 163.689 160.893 160.535 C 155.580 157.421,155.495 157.388,154.359 157.976 C 149.082 160.705,142.839 157.004,142.839 151.147 C 142.839 145.305,148.742 141.653,154.189 144.125 L 155.839 144.874 161.220 141.818 L 166.602 138.762 166.843 136.834 C 167.459 131.927,172.305 128.920,176.992 130.536 M173.720 136.771 C 172.283 137.576,173.392 139.768,174.981 139.264 C 175.494 139.101,175.781 138.674,175.781 138.073 C 175.781 136.935,174.676 136.236,173.720 136.771 M149.688 150.078 C 148.585 151.180,149.660 153.019,151.133 152.551 C 151.562 152.415,152.025 151.953,152.161 151.524 C 152.628 150.051,150.790 148.976,149.688 150.078 M238.683 160.477 C 240.143 161.660,240.311 166.756,238.934 168.132 L 237.926 169.141 225.213 169.141 L 212.500 169.141 212.500 164.453 L 212.500 159.766 225.152 159.766 C 236.809 159.766,237.873 159.822,238.683 160.477 M173.516 163.359 C 172.349 164.526,173.643 166.351,175.088 165.578 C 175.948 165.118,175.999 163.449,175.163 163.128 C 174.291 162.793,174.048 162.827,173.516 163.359 M238.194 195.139 C 239.437 196.010,239.501 201.905,238.281 203.125 C 237.042 204.364,185.779 204.349,184.449 203.110 C 183.229 201.973,183.177 196.510,184.375 195.313 C 185.453 194.234,236.667 194.070,238.194 195.139 M104.688 210.002 C 82.331 211.937,65.020 218.887,66.585 225.299 C 69.828 238.579,118.153 245.003,147.631 236.074 C 179.159 226.523,160.281 210.550,116.797 209.984 C 111.104 209.910,105.654 209.918,104.688 210.002 M238.893 222.685 C 240.066 223.980,240.176 228.384,239.071 229.785 L 238.225 230.859 211.624 230.859 C 180.668 230.859,183.594 231.321,183.594 226.435 C 183.594 221.379,180.553 221.875,211.523 221.875 C 237.979 221.875,238.165 221.881,238.893 222.685 M66.406 246.593 L 66.406 254.144 67.523 255.904 C 78.476 273.176,151.584 273.204,162.532 255.941 L 163.672 254.144 163.672 246.603 C 163.672 242.456,163.567 239.063,163.439 239.063 C 163.311 239.063,162.698 239.425,162.077 239.867 C 152.173 246.919,120.090 251.595,100.000 248.914 C 86.198 247.073,76.235 244.373,69.238 240.578 L 66.406 239.042 66.406 246.593 M238.951 249.330 C 240.118 250.497,239.956 256.070,238.726 257.066 C 237.223 258.283,186.175 258.224,184.623 257.003 C 183.054 255.769,183.061 250.476,184.633 249.239 C 186.136 248.057,237.764 248.144,238.951 249.330 M66.406 275.031 C 66.406 285.226,66.995 286.214,75.586 290.437 C 100.222 302.548,155.900 298.620,162.841 284.282 C 163.649 282.612,164.187 267.578,163.439 267.578 C 163.311 267.578,162.740 267.907,162.170 268.310 C 143.945 281.172,90.090 281.433,68.457 268.763 L 66.406 267.562 66.406 275.031 " stroke="none" fill="#040404" fill-rule="evenodd"></path><path id="path2" d="M146.944 114.355 C 155.038 114.414,168.398 114.414,176.631 114.355 C 184.865 114.296,178.242 114.248,161.914 114.248 C 145.586 114.248,138.849 114.296,146.944 114.355 M265.625 120.825 C 265.625 120.893,266.196 121.464,266.895 122.095 L 268.164 123.242 267.017 121.973 C 265.947 120.789,265.625 120.524,265.625 120.825 M239.578 164.844 C 239.578 166.240,239.649 166.812,239.736 166.113 C 239.822 165.415,239.822 164.272,239.736 163.574 C 239.649 162.876,239.578 163.447,239.578 164.844 M239.578 226.563 C 239.578 227.959,239.649 228.530,239.736 227.832 C 239.822 227.134,239.822 225.991,239.736 225.293 C 239.649 224.595,239.578 225.166,239.578 226.563 M239.578 253.125 C 239.578 254.521,239.649 255.093,239.736 254.395 C 239.822 253.696,239.822 252.554,239.736 251.855 C 239.649 251.157,239.578 251.729,239.578 253.125 " stroke="none" fill="#555555" fill-rule="evenodd"></path><path id="path3" d="M115.128 297.938 C 115.821 298.024,117.052 298.026,117.862 297.941 C 118.673 297.857,118.105 297.786,116.602 297.784 C 115.098 297.783,114.435 297.852,115.128 297.938 " stroke="none" fill="#7c7c7c" fill-rule="evenodd"></path><path id="path4" d="M237.891 106.351 C 237.891 106.407,241.362 109.879,245.605 114.066 L 253.320 121.680 245.707 113.965 C 238.633 106.797,237.891 106.074,237.891 106.351 M148.730 123.730 C 156.089 123.790,168.130 123.790,175.488 123.730 C 182.847 123.671,176.826 123.622,162.109 123.622 C 147.393 123.622,141.372 123.671,148.730 123.730 M188.857 151.172 C 188.857 166.104,188.905 172.212,188.965 164.746 C 189.024 157.280,189.024 145.063,188.965 137.598 C 188.905 130.132,188.857 136.240,188.857 151.172 M113.003 200.680 C 114.246 200.757,116.179 200.757,117.299 200.678 C 118.420 200.599,117.402 200.536,115.039 200.537 C 112.676 200.538,111.759 200.602,113.003 200.680 M57.217 254.688 C 57.217 271.123,57.265 277.847,57.324 269.629 C 57.383 261.411,57.383 247.964,57.324 239.746 C 57.265 231.528,57.217 238.252,57.217 254.688 M172.840 250.000 C 172.840 263.857,172.889 269.526,172.949 262.598 C 173.009 255.669,173.009 244.331,172.949 237.402 C 172.889 230.474,172.840 236.143,172.840 250.000 M113.379 240.523 C 114.614 240.601,116.636 240.601,117.871 240.523 C 119.106 240.446,118.096 240.382,115.625 240.382 C 113.154 240.382,112.144 240.446,113.379 240.523 M198.730 248.730 C 205.874 248.790,217.563 248.790,224.707 248.730 C 231.851 248.671,226.006 248.622,211.719 248.622 C 197.432 248.622,191.587 248.671,198.730 248.730 M112.016 297.933 C 112.502 298.026,113.205 298.022,113.579 297.925 C 113.952 297.827,113.555 297.750,112.695 297.755 C 111.836 297.759,111.530 297.839,112.016 297.933 M113.770 306.928 C 114.790 307.008,116.460 307.008,117.480 306.928 C 118.501 306.847,117.666 306.781,115.625 306.781 C 113.584 306.781,112.749 306.847,113.770 306.928 " stroke="none" fill="#848484" fill-rule="evenodd"></path></g></svg>